<?xml version="1.0" encoding="utf-8"?>
<!-- Generator: Adobe Illustrator 26.3.1, SVG Export Plug-In . SVG Version: 6.00 Build 0)  -->
<svg version="1.1" id="Layer_1" xmlns="http://www.w3.org/2000/svg" xmlns:xlink="http://www.w3.org/1999/xlink" x="0px" y="0px"
	 viewBox="0 0 92 56" style="enable-background:new 0 0 92 56;" xml:space="preserve">
<style type="text/css">
	.st0{fill:#FFFFFF;}
	.st1{fill:#EBEDEF;}
	.st2{fill:#ADB1B5;}
</style>
<path class="st0" d="M0,0h92v56H0V0z"/>
<path class="st0" d="M4-3.7h84c2.2,0,4,1.8,4,4v48c0,2.2-1.8,4-4,4H4c-2.2,0-4-1.8-4-4v-48C0-1.9,1.8-3.7,4-3.7z"/>
<path class="st1" d="M86.6,56H5.4c-3,0-5.4-2.4-5.4-5.4V29h92v21.6C92,53.6,89.6,56,86.6,56z"/>
<path class="st0" d="M0,25h92V3c0-2-1-3-3-3H3C1,0,0,1,0,3V25z"/>
<path class="st2" d="M11,39h14c1.7,0,3-1.3,3-3l0,0c0-1.7-1.3-3-3-3H11c-1.7,0-3,1.3-3,3l0,0C8,37.7,9.3,39,11,39z"/>
<path class="st2" d="M65,41.3h18c0.6,0,1-0.4,1-1l0,0c0-0.6-0.4-1-1-1H65c-0.6,0-1,0.4-1,1l0,0C64,40.8,64.4,41.3,65,41.3z"/>
<path class="st2" d="M73,35.3h10c0.6,0,1-0.4,1-1l0,0c0-0.6-0.4-1-1-1H73c-0.6,0-1,0.4-1,1l0,0C72,34.8,72.4,35.3,73,35.3z"/>
<path class="st2" d="M73,45.3h10c0.6,0,1-0.4,1-1l0,0c0-0.6-0.4-1-1-1H73c-0.6,0-1,0.4-1,1l0,0C72,44.8,72.4,45.3,73,45.3z"/>
<path class="st2" d="M9,53.7h10c0.6,0,1-0.4,1-1l0,0c0-0.6-0.4-1-1-1H9c-0.6,0-1,0.4-1,1l0,0C8,53.2,8.4,53.7,9,53.7z"/>
<path class="st2" d="M73,53.7h10c0.6,0,1-0.4,1-1l0,0c0-0.6-0.4-1-1-1H73c-0.6,0-1,0.4-1,1l0,0C72,53.2,72.4,53.7,73,53.7z"/>
<path class="st2" d="M9,44.8h18c0.6,0,1-0.4,1-1l0,0c0-0.6-0.4-1-1-1H9c-0.6,0-1,0.4-1,1l0,0C8,44.4,8.4,44.8,9,44.8z"/>
</svg>
